<svg width="80" height="80" fill="none" xmlns="http://www.w3.org/2000/svg"><rect x="-1" y="27" width="61.348" height="61.348" rx="8" transform="rotate(-27.631 -1 27)" fill="#F2F6FF"/><path d="M22.32 18c-.357 0-.699.146-.947.403L11.368 28.791a1.316 1.316 0 0 0-.368.913v38.45c0 1.365 1.053 2.483 2.34 2.483H49.6c1.287 0 2.34-1.118 2.34-2.483v-47.67c0-1.366-1.053-2.484-2.34-2.484H22.32Z" fill="#fff"/><path d="M16.409 32.47h30.056a1.31 1.31 0 0 1 0 2.619H16.409a1.31 1.31 0 0 1 0-2.62ZM16.408 40.451h30.056a1.31 1.31 0 1 1 0 2.62H16.408a1.31 1.31 0 1 1 0-2.62ZM16.408 48.433h30.056a1.31 1.31 0 1 1 0 2.619H16.408a1.31 1.31 0 1 1 0-2.62ZM16.408 56.398h12.846a1.31 1.31 0 1 1 0 2.619H16.408a1.31 1.31 0 0 1 0-2.619Z" fill="#DDD"/><path fill-rule="evenodd" clip-rule="evenodd" d="M22.32 19.316 12.317 29.703v38.45c0 .714.536 1.167 1.023 1.167H49.6c.487 0 1.023-.453 1.023-1.166V20.483c0-.714-.536-1.167-1.023-1.167H22.32Zm-.947-.913c.248-.258.59-.403.948-.403H49.6c1.286 0 2.339 1.117 2.339 2.483v47.67c0 1.366-1.053 2.483-2.34 2.483H13.34c-1.287 0-2.34-1.117-2.34-2.482v-38.45c0-.341.132-.668.368-.913l10.005-10.388Z" fill="#D1D1D1"/><path d="M11 29.697 22.697 18v11.697H11Z" fill="#D1D1D1"/><path d="M53.562 3.917H39.854a4.896 4.896 0 0 0-4.896 4.896V22.52a4.896 4.896 0 0 0 4.896 4.896h13.708a4.896 4.896 0 0 0 4.896-4.896V8.813a4.896 4.896 0 0 0-4.896-4.896Z" fill="#80AAFF"/><path d="m52.495 20.646-4.896-10.77a.978.978 0 0 0-1.782 0l-4.896 10.77a.979.979 0 1 0 1.783.81l1.742-3.832h4.526l1.742 3.832a.976.976 0 0 0 1.296.486.98.98 0 0 0 .487-1.297l-.002.001Zm-7.16-4.98 1.373-3.018 1.373 3.018h-2.745Z" fill="#fff"/><path d="M73.146 19.583H59.438a4.896 4.896 0 0 0-4.896 4.896v13.708a4.896 4.896 0 0 0 4.896 4.896h13.708a4.896 4.896 0 0 0 4.896-4.896V24.48a4.896 4.896 0 0 0-4.896-4.896Z" fill="#B3CCFF"/><path d="M76.084 40.146H60.417a2.937 2.937 0 0 1-2.938-2.937V21.542c0-.583.12-1.133.306-1.65-1.885.68-3.243 2.47-3.243 4.588v13.708c0 2.7 2.196 4.896 4.896 4.896h13.708c2.117 0 3.907-1.358 4.588-3.243a4.842 4.842 0 0 1-1.65.305Z" fill="#B3CCFF"/><path d="M70.64 29.375h.548a.98.98 0 0 0 0-1.958H67.27v-1.958a.98.98 0 0 0-1.958 0v1.958h-3.917a.98.98 0 0 0 0 1.958h7.266a6.815 6.815 0 0 1-2.376 4.258 6.842 6.842 0 0 1-1.785-2.304.98.98 0 0 0-1.77.839 8.705 8.705 0 0 0 1.837 2.52 6.977 6.977 0 0 1-2.753.561c-.54 0-.944.439-.944.98 0 .54.473.979 1.015.979a8.747 8.747 0 0 0 4.426-1.205 8.937 8.937 0 0 0 4.457 1.205c.54 0 .944-.439.944-.98 0-.54-.473-.979-1.015-.979-.93 0-1.832-.2-2.663-.554a8.789 8.789 0 0 0 2.606-5.32Z" fill="#fff"/><path d="M70.209 8.812h-4.49l.286-.287a.978.978 0 1 0-1.384-1.384l-1.959 1.958a.978.978 0 0 0 0 1.384l1.959 1.959a.977.977 0 0 0 1.384 0 .978.978 0 0 0 0-1.385l-.287-.287h4.49c.54 0 .98.44.98.98v2.937a.98.98 0 0 0 1.958 0V11.75a2.941 2.941 0 0 0-2.937-2.938ZM48.38 34.557a.978.978 0 1 0-1.384 1.385l.286.287h-4.49a.98.98 0 0 1-.98-.98v-2.937a.98.98 0 0 0-1.957 0v2.938a2.941 2.941 0 0 0 2.937 2.937h4.49l-.286.287a.978.978 0 1 0 1.384 1.385l1.958-1.959a.978.978 0 0 0 0-1.384l-1.958-1.959Z" fill="#A3A3A3"/><rect x="4" y="52" width="24" height="24" rx="4" fill="#0048D9"/><path d="m13.102 64.38-.224.84h1.946l-.21-.84a32.81 32.81 0 0 1-.378-1.456 86.612 86.612 0 0 0-.364-1.484h-.056c-.112.485-.229.985-.35 1.498-.112.504-.233.985-.364 1.442ZM9.798 69l2.856-9.128h2.478L17.988 69h-2.184l-.56-2.17h-2.786l-.56 2.17h-2.1Zm9.187 0v-9.128h2.058V69h-2.058Z" fill="#fff"/><path d="M63.222 70v2.222H61v1.111h2.222v2.223h1.111v-2.223h2.223v-1.11h-2.223V70h-1.11Z" fill="#003CB2"/><path fill-rule="evenodd" clip-rule="evenodd" d="M73.444 65.222a2.222 2.222 0 1 1-4.444 0 2.222 2.222 0 0 1 4.444 0Zm-3.377 0a1.156 1.156 0 1 0 2.31 0 1.156 1.156 0 0 0-2.31 0Z" fill="#003CB2"/></svg>