<svg width="80" height="80" fill="none" xmlns="http://www.w3.org/2000/svg"><rect x="8.182" y="24.746" width="50.384" height="50.384" rx="4" transform="rotate(-19.738 8.182 24.746)" fill="#FEF5F5"/><path fill-rule="evenodd" clip-rule="evenodd" d="M18.038 13.514h1.373v-1.292h-1.373v1.292Zm2.745 0h1.373v-1.292h-1.373v1.292Zm2.747 0h1.373v-1.292H23.53v1.292Zm2.743 0h1.373v-1.292h-1.373v1.292Zm2.745 0h1.372v-1.292h-1.372v1.292Zm2.747 0h1.373v-1.292h-1.373v1.292Zm2.745 0h1.373v-1.292H34.51v1.292Zm2.745 0h1.373v-1.292h-1.373v1.292Zm2.745 0v-1.292h1.373v1.292h1.372v-1.292h1.373v1.292H40Zm5.488 0h1.372v-1.292h-1.372v1.292Zm2.745 0h1.372v-1.292h-1.372v1.292Zm2.745 0h1.372v-1.292h-1.372v1.292Zm2.745 0h1.372v-1.292h-1.372v1.292Zm2.745 0h1.372v-1.292h-1.372v1.292Zm2.747 0h1.372v-1.292h-1.372v1.292Zm2.745 1.293v1.292h1.372v-1.292H61.96Zm0 2.583v1.292h1.372V17.39H61.96Zm0 2.585v1.292h1.372v-1.292H61.96Zm0 2.583v1.292h1.372v-1.292H61.96Zm0 2.585v1.292h1.372v-1.292H61.96Zm0 2.583v1.292h1.372v-1.292H61.96Zm0 2.585v1.291h1.372v-1.291H61.96Zm0 2.583v1.292h1.372v-1.292H61.96Zm0 2.584v1.292h1.372v-1.292H61.96Zm0 2.584v1.292h1.372v-1.292H61.96Zm0 2.584v1.292h1.372v-1.292H61.96Zm0 2.584v1.292h1.372V43.23H61.96Zm0 2.584v1.292h1.372v-1.292H61.96Zm0 2.584v1.292h1.372v-1.292H61.96Zm0 2.584v1.293h1.372v-1.292H61.96Zm0 2.584v1.292h1.372v-1.292H61.96Zm0 2.584v1.292h1.372V56.15H61.96Zm0 2.584v1.292h1.372v-1.292H61.96Zm0 2.584v1.292h1.372v-1.292H61.96Zm0 2.584v1.292h1.372v-1.292H61.96Zm-.002 2.584h-1.372v1.292h1.373v-1.292Zm-2.745 0h-1.372v1.292h1.372v-1.292Zm-2.745 0h-1.372v1.292h1.372v-1.292Zm-2.745 0H52.35v1.292h1.373v-1.292Zm-2.743 0h-1.373v1.292h1.373v-1.292Zm-2.745 0h-1.373v1.292h1.372v-1.292Zm-2.746 0h-1.372v1.292h1.372v-1.292Zm-2.745 0h-1.372v1.292h1.372v-1.292Zm-2.743 0h-1.372v1.292H40v-1.292Zm-2.745 0h-1.373v1.292h1.373v-1.292Zm-2.748 0h-1.372v1.292h1.372v-1.292Zm-2.747 0h-1.372v1.292h1.372v-1.292Zm-2.743 0h-1.373v1.292h1.373v-1.292Zm-2.743 0h-1.373v1.292h1.373v-1.292Zm-2.745 0h-1.373v1.292h1.373v-1.292Zm-2.745 0h-1.373v1.292h1.373v-1.292Zm-2.746-1.292v-1.292h-1.372v1.292h1.372Zm0-2.584v-1.292h-1.372v1.292h1.372Zm0-2.584v-1.292h-1.372v1.292h1.372Zm0-2.584V56.15h-1.372v1.292h1.372Zm0-2.584v-1.292h-1.372v1.292h1.372Zm0-2.583v-1.292h-1.372v1.292h1.372Zm0-2.585v-1.292h-1.372v1.292h1.372Zm0-2.584v-1.292h-1.372v1.292h1.372Zm0-2.584V43.23h-1.372v1.292h1.372Zm0-2.584v-1.292h-1.372v1.292h1.372Zm0-2.584v-1.292h-1.372v1.292h1.372Zm0-2.584v-1.292h-1.372v1.292h1.372Zm0-2.584v-1.292h-1.372v1.292h1.372Zm0-2.584v-1.291h-1.372v1.291h1.372Zm0-2.584v-1.292h-1.372v1.292h1.372Zm0-2.583v-1.292h-1.372v1.292h1.372Zm0-2.585v-1.292h-1.372v1.292h1.372Zm0-2.583v-1.292h-1.372v1.292h1.372Zm0-2.585V17.39h-1.372v1.292h1.372Zm-1.372-3.875v1.292h1.372v-1.292h-1.372Z" fill="#D1D1D1"/><path d="m47.905 61.11 8.762-8.961V20.88c0-1.095-.858-1.991-1.905-1.991H25.238c-1.048 0-1.905.896-1.905 1.991v38.24c0 1.095.857 1.99 1.905 1.99h22.667Z" fill="#fff"/><path d="M51.446 32.617h-22.84a.995.995 0 1 0 0 1.99h22.84a.995.995 0 1 0 0-1.99ZM51.446 38.682h-22.84a.995.995 0 1 0 0 1.99h22.84a.995.995 0 1 0 0-1.99ZM38.367 44.842h-9.761a.995.995 0 0 0 0 1.99h9.761a.995.995 0 0 0 0-1.99Z" fill="#DDD"/><path fill-rule="evenodd" clip-rule="evenodd" d="M56.667 52.149V20.88c0-1.095-.858-1.991-1.905-1.991H25.238c-1.048 0-1.905.896-1.905 1.991v38.24c0 1.095.857 1.99 1.905 1.99h22.667l8.762-8.961Zm-9.183 7.962H25.238c-.454 0-.905-.406-.905-.992V20.88c0-.585.451-.991.905-.991h29.524c.454 0 .905.406.905.991v30.861l-8.183 8.37Z" fill="#D1D1D1"/><path d="m46.666 61.111 10-10h-10v10Z" fill="#D1D1D1"/><path d="m71.035 8.579-6.322 6.32 2.624 2.624c.572.572.168 1.556-.644 1.556h-9.115a.911.911 0 0 1-.911-.911V9.053c0-.81.981-1.218 1.556-.644l2.624 2.623 6.32-6.32a.911.911 0 0 1 1.289 0l2.579 2.578a.911.911 0 0 1 0 1.289ZM21.968 71.782l-2.624-2.624-6.32 6.321a.911.911 0 0 1-1.29 0L9.156 72.9a.913.913 0 0 1 0-1.29l6.321-6.32-2.624-2.623c-.571-.572-.167-1.556.645-1.556h9.114a.91.91 0 0 1 .912.912v9.114c0 .807-.98 1.22-1.556.645Z" fill="#D92B2B"/><rect x="4" y="4" width="24" height="24" rx="4" fill="#F23030"/><path fill-rule="evenodd" clip-rule="evenodd" d="M15.002 11v2.149L9.88 7.175l-.76.65L14.415 14h-2.412v1h4v-4h-1Zm7.879 13.175L17.588 18h2.413v-1h-4v4h1v-2.148l5.12 5.974.76-.651ZM13 8h10v13h-1V9h-9V8Zm-3 15h9v1H9V11h1v12Z" fill="#fff"/><path d="M65.222 72v2.222H63v1.111h2.222v2.223h1.111v-2.223h2.223v-1.11h-2.223V72h-1.11Z" fill="#BF2626"/><path fill-rule="evenodd" clip-rule="evenodd" d="M75.444 67.222a2.222 2.222 0 1 1-4.444 0 2.222 2.222 0 0 1 4.444 0Zm-3.377 0a1.156 1.156 0 1 0 2.31 0 1.156 1.156 0 0 0-2.31 0Z" fill="#BF2626"/></svg>