<svg width="80" height="80" fill="none" xmlns="http://www.w3.org/2000/svg"><rect x="6.399" y="29.314" width="50.384" height="50.384" rx="4" transform="rotate(-27.631 6.4 29.314)" fill="#E7F9F9"/><path d="m61.375 57.09-10.36 10.135H23.873a1.992 1.992 0 0 1-1.986-1.986V21.243c0-1.092.895-1.986 1.986-1.986H59.39c1.091 0 1.985.894 1.985 1.986V57.09Z" fill="#fff" stroke="#D1D1D1" stroke-width=".612"/><path d="M55.438 27.653H27.825a1.203 1.203 0 1 0 0 2.406h27.613a1.203 1.203 0 0 0 0-2.406ZM55.438 34.986H27.826a1.203 1.203 0 0 0 0 2.406h27.612a1.203 1.203 0 1 0 0-2.406ZM55.438 42.318H27.826a1.203 1.203 0 1 0 0 2.406h27.612a1.203 1.203 0 1 0 0-2.406ZM39.627 49.765h-11.8a1.203 1.203 0 0 0 0 2.406h11.8a1.203 1.203 0 1 0 0-2.406ZM51.143 67.531l10.54-10.311h-10.54V67.53Z" fill="#D1D1D1"/><rect x="3" y="2" width="24" height="24" rx="4" fill="#0FC0C5"/><path d="M7 10V6h15v4h-1V7h-6v14h4v1h-9v-1h4V7H8v3H7Z" fill="#fff"/><rect x="51" y="24" width="16" height="16" rx="2.667" fill="#0FC0C5"/><path fill-rule="evenodd" clip-rule="evenodd" d="m63.55 29.016.782-.783-1.566-1.567-.783.783-.391-.39-.472.47-5.713 5.714-.04.04-.04-.04-.236.236-.392.392-.06.06-.024.084-.783 2.74-.165.578.577-.165 2.74-.783.084-.024.06-.061.392-.392.236-.236-.04-.04.04-.04 4.619-4.618.391-.392.704-.703.471-.472-.392-.391Zm-.552.392L61.592 28l-.704.703 1.407 1.407.703-.704Zm-7.12 4.307 4.619-4.619 1.406 1.407-4.618 4.618-1.407-1.406Zm-.169 2.34 1.01-.288.094-.095-1.486-1.486-.095.095-.288 1.009.765.766Z" fill="#fff"/><rect x="14" y="59" width="16" height="16" rx="2.667" fill="#0FC0C5"/><path fill-rule="evenodd" clip-rule="evenodd" d="M25.333 63.666v8.667h-.666v-8h-8v-.666h8.666Zm-6 1.334v4.666H24v.667h-5.333V65h.666Zm8 4.666v.667H26v-.666h1.333Zm-8-8V63h-.666v-1.334h.666Z" fill="#fff"/><path d="M63.222 70v2.222H61v1.111h2.222v2.223h1.111v-2.223h2.223v-1.11h-2.223V70h-1.11Z" fill="#0C9A9E"/><path fill-rule="evenodd" clip-rule="evenodd" d="M73.444 65.222a2.222 2.222 0 1 1-4.444 0 2.222 2.222 0 0 1 4.444 0Zm-3.377 0a1.156 1.156 0 1 0 2.31 0 1.156 1.156 0 0 0-2.31 0Z" fill="#0C9A9E"/></svg>