<svg width="80" height="88" viewBox="0 0 80 88" fill="none" xmlns="http://www.w3.org/2000/svg">
<rect x="80" y="28" width="61.0415" height="61.0415" rx="7.22666" transform="rotate(112.85 80 28)" fill="#FAFAFA"/>
<path d="M33.8499 57.7513C33.5146 57.6743 33.1633 57.775 32.9198 58.018L31.1278 59.8058C30.5369 60.3954 29.5263 60.0442 29.4284 59.2152L29.1028 56.4583C29.0656 56.1431 28.881 55.8643 28.6053 55.707L26.2045 54.3373C25.4975 53.934 25.5429 52.9001 26.2824 52.5602L28.6552 51.4695C28.9582 51.3302 29.1718 51.049 29.2248 50.7198L29.6432 48.1202C29.7779 47.2839 30.8263 46.9833 31.3836 47.6212L33.116 49.604C33.3354 49.8551 33.6656 49.9804 33.9963 49.9379L36.5865 49.6055C37.3939 49.5019 37.9802 50.3547 37.5944 51.0714L36.2842 53.5051C36.1338 53.7846 36.1249 54.1189 36.2604 54.4059L37.4452 56.9164C37.8015 57.6713 37.1306 58.5047 36.317 58.3178L33.8499 57.7513Z" fill="#FFB700"/>
<path d="M34.5947 71.7915C34.4271 71.753 34.2515 71.8034 34.1297 71.9249L32.8696 73.1821C32.5741 73.4769 32.0688 73.3012 32.0199 72.8867L31.7944 70.978C31.7758 70.8204 31.6835 70.681 31.5457 70.6023L29.8923 69.6591C29.5389 69.4574 29.5615 68.9405 29.9313 68.7705L31.5803 68.0125C31.7318 67.9429 31.8386 67.8023 31.8651 67.6377L32.1585 65.8149C32.2258 65.3968 32.75 65.2465 33.0286 65.5654L34.2434 66.9557C34.3531 67.0813 34.5182 67.1439 34.6835 67.1227L36.4836 66.8916C36.8873 66.8398 37.1804 67.2662 36.9875 67.6246L36.0853 69.3006C36.01 69.4404 36.0056 69.6075 36.0734 69.751L36.8937 71.4892C37.0718 71.8667 36.7364 72.2833 36.3296 72.1899L34.5947 71.7915Z" fill="#FFB700"/>
<path d="M23.1853 77.3211C23.1183 77.3057 23.048 77.3258 22.9993 77.3744L21.9127 78.4585C21.7945 78.5764 21.5924 78.5062 21.5728 78.3404L21.3824 76.7284C21.375 76.6653 21.338 76.6096 21.2829 76.5781L19.8969 75.7874C19.7555 75.7067 19.7645 75.4999 19.9124 75.4319L21.3122 74.7885C21.3728 74.7607 21.4155 74.7044 21.4261 74.6386L21.6781 73.0727C21.7051 72.9055 21.9147 72.8453 22.0262 72.9729L23.0697 74.1673C23.1136 74.2175 23.1797 74.2425 23.2458 74.2341L24.7738 74.038C24.9353 74.0172 25.0525 74.1878 24.9754 74.3311L24.219 75.7362C24.1889 75.7921 24.1871 75.859 24.2142 75.9164L24.907 77.3843C24.9782 77.5353 24.8441 77.702 24.6813 77.6646L23.1853 77.3211Z" fill="#FFB700"/>
<path fill-rule="evenodd" clip-rule="evenodd" d="M3 16V14H4V16H6V17H4V19H3V17H1L1 16H3Z" fill="#0055FF"/>
<path fill-rule="evenodd" clip-rule="evenodd" d="M13 10.5C13 11.8807 11.8807 13 10.5 13C9.11929 13 8 11.8807 8 10.5C8 9.11929 9.11929 8 10.5 8C11.8807 8 13 9.11929 13 10.5ZM9.2 10.5C9.2 11.218 9.78203 11.8 10.5 11.8C11.218 11.8 11.8 11.218 11.8 10.5C11.8 9.78203 11.218 9.2 10.5 9.2C9.78203 9.2 9.2 9.78203 9.2 10.5Z" fill="#FFB700"/>
<path fill-rule="evenodd" clip-rule="evenodd" d="M61.0239 60.5209L51.5994 64.3287L51.1638 62.9556L62.5761 58.4639L67.2726 69.7934L65.9823 70.4339L62.1746 61.0093L55.3368 77.1182L54.1861 76.6298L61.0239 60.5209Z" fill="#0055FF" stroke="#0055FF"/>
<path fill-rule="evenodd" clip-rule="evenodd" d="M18.006 31.8259L12.8683 33.9017L12.6308 33.1532L18.8522 30.7045L21.4125 36.8808L20.7091 37.2299L18.6333 32.0922L14.9057 40.8739L14.2784 40.6076L18.006 31.8259Z" fill="#0055FF" stroke="#0055FF"/>
<g filter="url(#filter0_d_6585_117361)">
<path d="M57.6408 27.2369C57.1628 27.1906 56.7042 27.4255 56.4652 27.8451L51.9856 35.6952C51.7829 36.0494 51.7708 36.4817 51.9557 36.8476L55.4086 43.6949C55.6157 44.1064 56.0557 44.3299 56.5161 44.329L56.8757 44.2679C57.1942 44.1607 57.4711 43.9201 57.6206 43.6163C60.0372 38.7438 60.4126 33.2209 58.6755 28.0616C58.5237 27.6058 58.1188 27.2832 57.6408 27.2369Z" fill="#0048D9"/>
<path d="M52.1458 39.7359C51.8505 39.8353 51.5168 39.8209 51.2166 39.672L38.306 33.2654C37.7282 32.9787 37.4741 32.2901 37.7279 31.696L42.2369 21.1506C45.3434 13.4237 52.3471 6.70183 59.745 4.38565C60.365 4.19232 61.0291 4.52188 61.2502 5.13252C63.8785 12.3791 62.7642 22.0658 58.4755 29.2368L52.8175 39.1826C52.6623 39.4541 52.4211 39.6432 52.1458 39.7359Z" fill="#E5EEFF"/>
<path d="M55.1605 21.9618C54.1745 22.2938 53.0637 22.25 52.0623 21.7531C50.0591 20.7578 49.2377 18.3181 50.2309 16.3139C51.2257 14.3091 53.6654 13.4877 55.6701 14.4825C57.6734 15.4778 58.4948 17.9175 57.5015 19.9217C57.0036 20.9251 56.145 21.6304 55.1605 21.9618Z" fill="#B1D6FB"/>
<path d="M42.5113 20.4869C37.5971 22.2905 33.627 25.8451 31.2909 30.5501L31.2562 30.62C31.0512 31.0333 31.0973 31.5264 31.3751 31.8936C31.6534 32.2623 32.1143 32.4411 32.5673 32.357L37.8612 31.3812L42.2356 21.1483C42.3243 20.9283 42.416 20.7074 42.5113 20.4869Z" fill="#0048D9"/>
<path d="M44.1589 38.6554C44.3578 38.763 44.4285 39.0095 44.3168 39.2061L42.2955 42.7655C42.1838 42.9621 41.9321 43.0343 41.7333 42.9267C41.5344 42.8192 41.4637 42.5726 41.5754 42.376L43.5967 38.8166C43.7084 38.6201 43.9601 38.5479 44.1589 38.6554Z" fill="#FFB700"/>
<path d="M40.8777 37.8088C41.0765 37.9163 41.1472 38.1629 41.0356 38.3594L39.0142 41.9188C38.9026 42.1154 38.6509 42.1876 38.452 42.08C38.2532 41.9725 38.1825 41.7259 38.2941 41.5294L40.3155 37.97C40.4271 37.7734 40.6788 37.7012 40.8777 37.8088Z" fill="#FFB700"/>
<path d="M46.6394 40.924C46.8382 41.0315 46.9089 41.2781 46.7973 41.4747L44.7759 45.0341C44.6643 45.2306 44.4126 45.3028 44.2137 45.1953C44.0149 45.0877 43.9442 44.8412 44.0558 44.6446L46.0772 41.0852C46.1888 40.8886 46.4405 40.8164 46.6394 40.924Z" fill="#FFB700"/>
</g>
<defs>
<filter id="filter0_d_6585_117361" x="27.1289" y="0.330078" width="39.5312" height="48.915" filterUnits="userSpaceOnUse" color-interpolation-filters="sRGB">
<feFlood flood-opacity="0" result="BackgroundImageFix"/>
<feColorMatrix in="SourceAlpha" type="matrix" values="0 0 0 0 0 0 0 0 0 0 0 0 0 0 0 0 0 0 127 0" result="hardAlpha"/>
<feOffset/>
<feGaussianBlur stdDeviation="2"/>
<feColorMatrix type="matrix" values="0 0 0 0 0.101961 0 0 0 0 0.101961 0 0 0 0 0.101961 0 0 0 0.2 0"/>
<feBlend mode="normal" in2="BackgroundImageFix" result="effect1_dropShadow_6585_117361"/>
<feBlend mode="normal" in="SourceGraphic" in2="effect1_dropShadow_6585_117361" result="shape"/>
</filter>
</defs>
</svg>
