<svg width="1040" height="120" fill="none" xmlns="http://www.w3.org/2000/svg"><path fill-rule="evenodd" clip-rule="evenodd" d="M131.858 8.144c-1.383-.155-3.065-.203-4.547-.053-.56-.049-1.223 0-1.887.053-12.253.97-23.535 7.36-30.578 18.249.196-.02.406-.003.62.014.344.029.697.058 1.011-.067a48.024 48.024 0 0 1 4.136-5.061l.279-.27c1.222-1.18 2.376-2.297 3.705-3.154.698.456 1.436.87 2.164 1.278.66.37 1.312.735 1.917 1.123l-.364.458c-1.466 1.842-2.94 3.695-4.025 5.679.359.15 1.022.101 1.532 0 1.274-1.893 2.656-3.786 4.287-5.471.438.163.874.328 1.31.492 1.747.66 3.479 1.316 5.277 1.807l.202.203-1.275 2.97c.496.089.834.058 1.293.016l.187-.017c.197-.372.375-.763.553-1.155.24-.527.481-1.058.774-1.554 2.96.662 6.075 1.02 9.241 1.125.248.215.233.587.218.948-.01.23-.02.457.04.636h1.373c.074-.244.069-.497.063-.745-.006-.277-.012-.548.094-.79 2.96-.155 6.069-.464 8.933-1.174l.254.049 1.375 2.66c.111 0 .232.006.356.012.388.02.807.04 1.08-.118l-1.279-2.96.105-.106c2.263-.591 4.387-1.466 6.546-2.354l.241-.1c1.585 1.686 3.065 3.685 4.396 5.626.11 0 .219.002.327.004.446.007.873.015 1.197-.11a20.219 20.219 0 0 0-2.189-3.22c-.666-.971-1.384-1.836-2.251-2.758v-.256l3.573-2.096.517-.203a37.478 37.478 0 0 1 8.056 8.533c.197 0 .384.022.563.042.381.044.73.084 1.075-.09-6.839-10.427-18.118-17.124-30.326-18.095l-.053.101-.096-.101Zm5.254 2.4v-.102c-5.359-1.38-11.736-1.279-17.148 0l.816.667c4.694 3.013 11.892 2.709 16.332-.565Zm14.039 6.134-.096.203-3.52 1.998h-.263c-2.697-2.762-5.867-5.162-9.09-7.055l.981-.87c4.282 1.126 8.319 3.067 11.988 5.724Zm-41.296 2.35c2.859-2.86 5.972-5.21 9.136-7.205l-.918-.715c-.2-.175-.387-.103-.585-.026-.152.059-.311.12-.488.074v-.097l-.457.3c-3.779 1.232-7.352 3.019-10.568 5.423v.098c1.224.873 2.502 1.636 3.88 2.148Zm35.936.517-.096.15c-1.996.87-4.037 1.686-6.235 2.149-1.576-2.714-3.31-5.419-5.254-8.026.386-.221.816-.413 1.25-.606.371-.165.745-.332 1.097-.52 3.318 1.686 6.532 4.09 9.238 6.853Zm-23.124-5.423.151-.406c-.529-.247-1.057-.448-1.585-.649a52.72 52.72 0 0 1-.709-.274c-3.268 1.739-6.228 3.989-9.035 6.694l-.103.309c1.937.869 3.982 1.535 6.075 2.096l.201-.05.303-.514c1.435-2.441 2.888-4.914 4.702-7.206Zm5.175 6.63c-.009.833-.018 1.662-.018 2.469-1.065.15-2.042.05-3.061-.055-.351-.036-.706-.073-1.072-.1a64.691 64.691 0 0 0-.928-.127c-1.179-.156-2.484-.328-3.564-.69 1.479-2.81 3.213-5.519 5.306-8.025l3.271.463c.109 1.893.087 3.995.066 6.064Zm4.725-6.476c1.997 2.555 3.932 5.162 5.263 7.973a35.736 35.736 0 0 1-8.424 1.019c-.105-2.705-.053-5.723 0-8.533a251.88 251.88 0 0 1 1.761-.256c.475-.068.948-.136 1.4-.203ZM171.728 33.294c-6.637-4.294-16.752-4.602-23.582-.72-3.731 1.942-6.183 5.78-6.945 9.712-1.383 6.494-1.024 14.211 3.871 19.07 5.727 5.109 14.046 6.234 21.446 4.138.35-.07 1.471-.358 2.233-.773l.219-.097c2.294-.97 4.492-2.559 6.121-4.703 3.783-5.621 4.037-14.057 1.734-20.393-.911-2.453-2.802-4.65-5.097-6.234Zm-8.03 7.783c.65.86.749 1.933.845 2.974.025.27.049.537.083.798-.015.76-.005 1.56.005 2.379.026 2.084.054 4.291-.336 6.256-.275 1.137-1.139 2.314-2.498 2.742-2.177.847-5.117.61-7.129-.379-1.668-1.025-1.896-2.736-2.114-4.37l-.008-.066-.016-.312-.022-.4c-.161-3.043-.328-6.204.635-8.966.817-1.837 3.05-2.31 5.062-2.452 2.122 0 4.189.285 5.493 1.796Z" fill="#0048D9"/><path d="m84.991 30.222-3.165.053c-.05 2.71-.05 5.877 0 8.635.607.02 1.201.026 1.79.032 1.095.01 2.17.022 3.267.122V56.45l-.055.71-5.053.106c-.103 2.86-.103 5.62 0 8.431h22.513v-8.431a34.58 34.58 0 0 0-2.205-.042c-1.026.002-2.057.005-3.002-.113l.05-17.94.104-.154 5.053-.049c.055-2.916.103-6.031-.048-8.692l-19.249-.053Z" fill="#0048D9"/><path fill-rule="evenodd" clip-rule="evenodd" d="M116.901 69.465c.152.008.306.018.456.018l1.377 2.704c2.962-.613 6.025-.97 9.193-1.125.183-.307.162-.598.139-.915a2.711 2.711 0 0 1 .01-.664h1.329c.113.218.104.513.095.81-.007.253-.015.51.054.72 3.065.204 6.384.561 9.396 1.227l1.384-2.757h1.375c-.125.603-.406 1.19-.69 1.781-.194.407-.39.815-.536 1.232l.253.203c2.295.614 4.335 1.434 6.586 2.352 1.633-1.641 2.936-3.566 4.181-5.406l.11-.162h1.585c-1.226 2.197-2.811 4.187-4.449 6.186.649.43 1.341.819 2.039 1.212.621.35 1.247.702 1.849 1.086l.509.049c2.96-2.347 5.665-5.365 7.802-8.485a9.212 9.212 0 0 1 1.638 0c-8.679 13.391-23.636 20.19-39.307 18.095-4.545-.613-8.831-2.047-12.862-4.037l-.055-.155-.048.049c-5.972-3.014-11.695-8.123-15.366-13.952l.196-.016c.507-.042.89-.074 1.437.016 2.141 3.221 5.002 6.288 8.065 8.64 1.055-.489 2.081-1.119 3.101-1.745.363-.222.725-.445 1.087-.66l-.247-.308c-1.554-1.936-3.083-3.843-4.245-5.975.168.029.378.004.596-.023.509-.061 1.062-.128 1.236.477 1.125 1.743 2.502 3.482 3.932 5.061l.208.106a60.694 60.694 0 0 1 6.739-2.405l.151-.154-1.276-3.014c.252-.109.606-.088.973-.067Zm21.279 4.31-.044-.154c-2.706-.666-5.614-.97-8.521-1.024-.158 3.014-.105 5.674 0 8.692l.858.097c.353.022.697.093 1.037.163.505.104 1.003.207 1.521.146 1.935-2.506 3.73-5.162 5.149-7.92Zm2.198 7.36c1.944-1.38 4.037-3.018 5.674-4.906-1.944-.97-4.037-1.69-6.235-2.201l-.149.105c-1.427 2.71-3.065 5.264-4.904 7.77l-.158.358 2.199.97c.956-.478 1.88-1.05 2.798-1.618l.001-.001.002-.001c.258-.16.515-.32.772-.476Zm11.129-1.995c-2.855 2.299-6.174 3.834-9.545 5.11l-2.4.767c-.403-.207-.762-.507-1.121-.816l.097-.155c3.275-1.941 6.235-4.293 9.037-7.103 1.384.565 2.706 1.328 3.932 2.197Zm-33.385 5.878 1.023-.816c-3.269-2.096-6.281-4.298-9.191-7.206-1.147.485-2.22 1.162-3.284 1.832l-.002.002-.494.31v.155c3.677 2.656 7.658 4.598 11.948 5.723Zm18.936.666.359-.309C132.776 82 125.374 82 120.625 85.12l-.407.459c5.405 1.328 11.437 1.28 16.84.106ZM117.973 74.08c1.478 2.81 3.317 5.467 5.156 8.123-.367.211-.771.382-1.175.552-.388.163-.775.325-1.126.524a34.413 34.413 0 0 1-9.289-6.848v-.154c1.99-.97 4.083-1.686 6.226-2.25l.208.052Zm10.102 7.155c-.528.127-1.083.19-1.633.254-.561.065-1.117.129-1.633.258-2.095-2.506-3.829-5.215-5.309-8.026l.256-.207c2.653-.507 5.412-.918 8.271-.918l.048 8.64Z" fill="#0048D9"/><path d="M128.436 31.656c-5.617-2.404-13.477-2.656-18.582 1.072-3.319 2.453-4.342 6.848-3.472 10.735.665 3.68 4.135 6.389 7.452 7.664 2.416.87 4.888 1.609 7.363 2.348 2.184.653 4.37 1.306 6.521 2.05.465.204 1.075.663.979 1.228 0 .451-.452.706-.808.908l-.017.01c-4.797 1.328-10.003.308-13.473-3.372-.202-.253-.366-.531-.531-.81-.168-.284-.336-.568-.544-.827l-6.892.053c-.098 4.139-.153 8.891 0 12.981l7.658-.048.103-2.458c.586.28 1.171.601 1.757.923.282.156.566.312.849.463 5.309 2.246 12.152 2.753 17.407 0 3.827-2.153 5.876-6.292 5.306-10.735-.56-4.346-4.641-8.282-8.774-9.358l-12.357-3.627-.919-.464c-.407-.357-.663-.816-.565-1.376.809-1.404 2.504-1.284 4.021-1.176.305.021.603.043.885.05 3.573.512 7.244 1.74 9.337 5.062.55 0 1.121.002 1.706.005 1.807.01 3.745.02 5.598-.054.068-2.952.014-5.648-.042-8.465v-.002a434.98 434.98 0 0 1-.063-3.653c-2.295-.049-5.105-.049-7.4.057-.042.246-.035.532-.028.826.011.44.023.9-.13 1.27l-2.345-1.28Z" fill="#0048D9"/><path d="M82.115 106V95.568h2.352V106h-2.352Zm7.996.192a6.029 6.029 0 0 1-2.048-.368 5.456 5.456 0 0 1-1.808-1.136l1.344-1.616c.374.32.784.581 1.232.784.459.203.907.304 1.344.304.491 0 .854-.091 1.088-.272a.868.868 0 0 0 .368-.736.757.757 0 0 0-.112-.416.829.829 0 0 0-.304-.304 2.029 2.029 0 0 0-.48-.256 19.948 19.948 0 0 0-.608-.272l-1.36-.576a4.276 4.276 0 0 1-.784-.416 3.948 3.948 0 0 1-.672-.592 2.97 2.97 0 0 1-.464-.8 2.914 2.914 0 0 1-.176-1.04c0-.427.091-.827.272-1.2.182-.384.438-.715.768-.992.331-.288.72-.512 1.168-.672.459-.16.96-.24 1.504-.24.608 0 1.206.117 1.792.352.598.235 1.12.576 1.568 1.024l-1.2 1.488a4.309 4.309 0 0 0-1.024-.608 2.805 2.805 0 0 0-1.136-.224c-.405 0-.73.085-.976.256a.782.782 0 0 0-.352.688c0 .16.038.299.112.416.086.107.198.208.336.304.15.085.32.17.512.256.192.075.4.16.624.256l1.344.544c.64.256 1.142.608 1.504 1.056.374.448.56 1.04.56 1.776 0 .437-.09.853-.272 1.248-.17.384-.426.725-.768 1.024a3.92 3.92 0 0 1-1.232.704c-.49.171-1.045.256-1.664.256Zm9.947 0c-.704 0-1.35-.123-1.936-.368a4.302 4.302 0 0 1-1.488-1.088c-.416-.469-.741-1.04-.976-1.712-.224-.672-.336-1.435-.336-2.288 0-.853.112-1.61.336-2.272.235-.672.56-1.232.976-1.68a4.043 4.043 0 0 1 1.488-1.04 4.97 4.97 0 0 1 1.936-.368c.704 0 1.344.123 1.92.368a4.012 4.012 0 0 1 1.504 1.04c.416.459.736 1.024.96 1.696.235.661.352 1.413.352 2.256 0 .853-.117 1.616-.352 2.288-.224.672-.544 1.243-.96 1.712a4.261 4.261 0 0 1-1.504 1.088 4.858 4.858 0 0 1-1.92.368Zm0-2.032c.715 0 1.28-.304 1.696-.912.416-.619.624-1.456.624-2.512 0-1.045-.208-1.861-.624-2.448-.416-.587-.981-.88-1.696-.88s-1.28.293-1.696.88c-.416.587-.624 1.403-.624 2.448 0 1.056.208 1.893.624 2.512.416.608.981.912 1.696.912Zm5.486 4.4 3.216-13.92h1.536l-3.216 13.92h-1.536Zm6.446-2.56V95.568h2.352V106h-2.352Zm4.812 0V95.568h6.528v1.984h-4.176v2.096h3.552v1.968h-3.552v2.4h4.336V106h-6.688Zm13.118.192a5.206 5.206 0 0 1-1.872-.336 4.579 4.579 0 0 1-1.552-1.024c-.437-.448-.784-1.003-1.04-1.664-.256-.672-.384-1.445-.384-2.32 0-.864.133-1.632.4-2.304.267-.683.624-1.259 1.072-1.728a4.52 4.52 0 0 1 1.568-1.072 4.922 4.922 0 0 1 1.888-.368c.672 0 1.275.139 1.808.416.533.267.976.581 1.328.944l-1.248 1.504a3.69 3.69 0 0 0-.848-.592 2.01 2.01 0 0 0-.992-.24c-.352 0-.688.08-1.008.24-.309.15-.581.368-.816.656-.224.288-.405.64-.544 1.056a4.78 4.78 0 0 0-.192 1.408c0 1.077.229 1.915.688 2.512.459.587 1.072.88 1.84.88.427 0 .805-.091 1.136-.272.341-.192.64-.427.896-.704l1.248 1.472c-.875 1.024-2 1.536-3.376 1.536Zm7.524-.192v-1.344a107.64 107.64 0 0 0 1.776-1.696 20.814 20.814 0 0 0 1.392-1.488c.394-.469.698-.901.912-1.296.224-.405.336-.79.336-1.152 0-.501-.128-.88-.384-1.136-.256-.267-.608-.4-1.056-.4-.374 0-.704.107-.992.32-.288.203-.56.443-.816.72l-1.28-1.264c.501-.533 1.013-.933 1.536-1.2.522-.277 1.146-.416 1.872-.416.501 0 .954.08 1.36.24.416.15.773.368 1.072.656.298.277.528.613.688 1.008.16.395.24.837.24 1.328 0 .427-.091.864-.272 1.312-.182.437-.427.88-.736 1.328-.299.437-.646.88-1.04 1.328-.384.437-.784.869-1.2 1.296.256-.032.538-.059.848-.08.32-.032.602-.048.848-.048h2.048V106h-7.152Zm10.405 0c.042-.843.117-1.616.224-2.32a14.41 14.41 0 0 1 .48-2.032c.213-.651.48-1.285.8-1.904.33-.619.736-1.259 1.216-1.92h-4.56V95.84h7.072v1.44a15.067 15.067 0 0 0-1.424 2.016 9.347 9.347 0 0 0-.832 1.936 12.69 12.69 0 0 0-.416 2.144c-.086.757-.15 1.632-.192 2.624h-2.368Zm10.133.192a3.28 3.28 0 0 1-1.488-.336 3.287 3.287 0 0 1-1.152-1.024c-.31-.448-.555-1.003-.736-1.664-.171-.661-.256-1.424-.256-2.288 0-.864.085-1.621.256-2.272.181-.65.426-1.195.736-1.632.32-.448.704-.779 1.152-.992a3.28 3.28 0 0 1 1.488-.336c.544 0 1.04.112 1.488.336.448.213.826.544 1.136.992.32.437.565.981.736 1.632.181.65.272 1.408.272 2.272 0 .864-.091 1.627-.272 2.288-.171.661-.416 1.216-.736 1.664-.31.448-.688.789-1.136 1.024a3.28 3.28 0 0 1-1.488.336Zm0-1.824c.202 0 .389-.048.56-.144.17-.107.32-.293.448-.56.128-.267.224-.624.288-1.072.074-.448.112-1.019.112-1.712 0-.693-.038-1.259-.112-1.696-.064-.448-.16-.795-.288-1.04-.128-.256-.278-.432-.448-.528a1.126 1.126 0 0 0-1.104 0c-.171.096-.32.272-.448.528-.128.245-.23.592-.304 1.04-.075.437-.112 1.003-.112 1.696 0 .693.037 1.264.112 1.712.074.448.176.805.304 1.072s.277.453.448.56c.17.096.352.144.544.144Zm8.453 1.824a3.28 3.28 0 0 1-1.488-.336 3.287 3.287 0 0 1-1.152-1.024c-.309-.448-.555-1.003-.736-1.664-.171-.661-.256-1.424-.256-2.288 0-.864.085-1.621.256-2.272.181-.65.427-1.195.736-1.632.32-.448.704-.779 1.152-.992a3.28 3.28 0 0 1 1.488-.336c.544 0 1.04.112 1.488.336.448.213.827.544 1.136.992.32.437.565.981.736 1.632.181.65.272 1.408.272 2.272 0 .864-.091 1.627-.272 2.288-.171.661-.416 1.216-.736 1.664a3.149 3.149 0 0 1-1.136 1.024 3.28 3.28 0 0 1-1.488.336Zm0-1.824c.203 0 .389-.048.56-.144.171-.107.32-.293.448-.56.128-.267.224-.624.288-1.072.075-.448.112-1.019.112-1.712 0-.693-.037-1.259-.112-1.696-.064-.448-.16-.795-.288-1.04-.128-.256-.277-.432-.448-.528a1.123 1.123 0 0 0-1.104 0c-.171.096-.32.272-.448.528-.128.245-.229.592-.304 1.04-.075.437-.112 1.003-.112 1.696 0 .693.037 1.264.112 1.712.075.448.176.805.304 1.072s.277.453.448.56c.171.096.352.144.544.144Zm5.349 1.632v-1.904h2.208v-5.872h-1.904v-1.456a8.212 8.212 0 0 0 1.408-.384c.384-.15.757-.33 1.12-.544h1.728v8.256h1.904V106h-6.464Z" fill="#1A1A1A"/><circle cx="390" cy="48" r="40" fill="#003CB2"/><path d="M375.988 54.192a5.973 5.973 0 0 1-2.016-.336 4.648 4.648 0 0 1-1.616-1.024 4.812 4.812 0 0 1-1.088-1.664c-.256-.672-.384-1.445-.384-2.32 0-.864.134-1.632.4-2.304a5.096 5.096 0 0 1 1.088-1.728 4.784 4.784 0 0 1 1.632-1.072 5.293 5.293 0 0 1 1.968-.368c.758 0 1.408.139 1.952.416.544.277.987.592 1.328.944l-1.232 1.504a4.463 4.463 0 0 0-.848-.592c-.298-.16-.672-.24-1.12-.24-.405 0-.778.08-1.12.24-.33.15-.618.368-.864.656a3.15 3.15 0 0 0-.576 1.056 4.782 4.782 0 0 0-.192 1.408c0 1.077.24 1.915.72 2.512.491.587 1.227.88 2.208.88.214 0 .422-.027.624-.08.203-.053.368-.133.496-.24v-1.792h-1.728v-1.92h3.808v4.8c-.362.352-.842.65-1.44.896-.597.245-1.264.368-2 .368Zm5.596-.192V43.568h2.944c.8 0 1.52.101 2.16.304a4.28 4.28 0 0 1 1.648.944c.458.416.81.95 1.056 1.6.245.65.368 1.424.368 2.32 0 .896-.123 1.675-.368 2.336-.246.661-.592 1.21-1.04 1.648a4.319 4.319 0 0 1-1.616.96c-.619.213-1.312.32-2.08.32h-3.072Zm2.352-1.904h.448a3.94 3.94 0 0 0 1.216-.176c.362-.117.672-.304.928-.56.256-.267.453-.613.592-1.04.149-.427.224-.955.224-1.584 0-.619-.075-1.136-.224-1.552-.139-.427-.336-.763-.592-1.008a2.148 2.148 0 0 0-.928-.544 4.304 4.304 0 0 0-1.216-.16h-.448v6.624ZM391.74 54V43.568h3.584c.576 0 1.114.059 1.616.176.501.107.938.293 1.312.56.373.256.666.603.88 1.04.224.427.336.955.336 1.584 0 .608-.112 1.136-.336 1.584a3.007 3.007 0 0 1-.88 1.104 3.793 3.793 0 0 1-1.296.64 5.746 5.746 0 0 1-1.568.208h-1.296V54h-2.352Zm2.352-5.408h1.152c1.28 0 1.92-.555 1.92-1.664 0-.544-.171-.928-.512-1.152-.342-.224-.832-.336-1.472-.336h-1.088v3.152ZM401.271 54V43.568h3.76c.555 0 1.072.053 1.552.16.491.107.917.288 1.28.544.363.245.651.576.864.992.213.416.32.933.32 1.552 0 .768-.171 1.403-.512 1.904-.331.49-.779.859-1.344 1.104L409.559 54h-2.64l-2-3.76h-1.296V54h-2.352Zm2.352-5.632h1.216c.619 0 1.088-.128 1.408-.384.331-.267.496-.656.496-1.168 0-.512-.165-.87-.496-1.072-.32-.203-.789-.304-1.408-.304h-1.216v2.928Z" fill="#fff"/><path fill-rule="evenodd" clip-rule="evenodd" d="M390.79 17.163 389.771 14l-1.02 3.163h-3.298l2.669 1.955-1.019 3.164 2.668-1.957 2.668 1.957-1.019-3.164 2.668-1.955h-3.298Zm0 59.72-1.019-3.165-1.02 3.164h-3.298l2.669 1.956L387.103 82l2.668-1.955L392.439 82l-1.019-3.163 2.668-1.956h-3.298Zm15.234-57.59 1.018 3.165h3.299l-2.669 1.956 1.02 3.163-2.668-1.956-2.668 1.957 1.019-3.164-2.668-1.956h3.298l1.019-3.164Zm12.105 14.196-1.018-3.164-1.02 3.164h-3.298l2.668 1.955-1.019 3.163 2.669-1.954 2.667 1.955-1.019-3.164 2.668-1.956h-3.298Zm-.772 24.71 1.018 3.165h3.298l-2.668 1.955 1.02 3.162-2.668-1.954-2.669 1.954 1.019-3.162-2.668-1.955h3.298l1.02-3.165Zm-53.494-24.71-1.019-3.164-1.018 3.164h-3.299l2.668 1.955-1.019 3.163 2.668-1.954 2.667 1.955-1.018-3.164 2.667-1.956h-3.297Zm55.822 10.13 1.018 3.163h3.298l-2.668 1.954 1.019 3.165-2.667-1.955-2.669 1.955 1.02-3.165-2.669-1.954h3.298l1.02-3.164Zm-58.349 3.163-1.019-3.164-1.019 3.164H356l2.668 1.955-1.019 3.164 2.668-1.955 2.668 1.955-1.02-3.165 2.669-1.954h-3.298Zm1.142 11.417 1.018 3.165h3.298l-2.668 1.955 1.019 3.162-2.667-1.954-2.669 1.954 1.019-3.162-2.668-1.955h3.298l1.02-3.165Zm45.042 14.666-1.019-3.164-1.019 3.164h-3.298l2.668 1.956-1.02 3.163 2.669-1.955 2.668 1.955-1.02-3.163 2.669-1.956h-3.298Zm-33.477-53.571 1.019 3.164h3.298l-2.668 1.956 1.02 3.163-2.669-1.956-2.667 1.957 1.019-3.164-2.668-1.956h3.297l1.019-3.164Zm-.172 53.37-1.019-3.165-1.019 3.165h-3.298l2.668 1.954-1.019 3.163 2.668-1.953 2.668 1.953-1.019-3.163 2.668-1.954h-3.298Z" fill="#F8D12E"/><path d="M375.988 106.192a5.973 5.973 0 0 1-2.016-.336 4.653 4.653 0 0 1-1.616-1.024 4.815 4.815 0 0 1-1.088-1.664c-.256-.672-.384-1.445-.384-2.32 0-.864.134-1.632.4-2.304a5.096 5.096 0 0 1 1.088-1.728 4.784 4.784 0 0 1 1.632-1.072 5.293 5.293 0 0 1 1.968-.368c.758 0 1.408.139 1.952.416.544.277.987.592 1.328.944l-1.232 1.504a4.463 4.463 0 0 0-.848-.592c-.298-.16-.672-.24-1.12-.24-.405 0-.778.08-1.12.24-.33.15-.618.368-.864.656a3.15 3.15 0 0 0-.576 1.056 4.78 4.78 0 0 0-.192 1.408c0 1.077.24 1.915.72 2.512.491.587 1.227.88 2.208.88.214 0 .422-.027.624-.08.203-.053.368-.133.496-.24v-1.792h-1.728v-1.92h3.808v4.8c-.362.352-.842.651-1.44.896-.597.245-1.264.368-2 .368Zm5.596-.192V95.568h2.944c.8 0 1.52.101 2.16.304a4.28 4.28 0 0 1 1.648.944c.458.416.81.95 1.056 1.6.245.65.368 1.424.368 2.32 0 .896-.123 1.675-.368 2.336-.246.661-.592 1.211-1.04 1.648a4.31 4.31 0 0 1-1.616.96c-.619.213-1.312.32-2.08.32h-3.072Zm2.352-1.904h.448a3.95 3.95 0 0 0 1.216-.176c.362-.117.672-.304.928-.56.256-.267.453-.613.592-1.04.149-.427.224-.955.224-1.584 0-.619-.075-1.136-.224-1.552-.139-.427-.336-.763-.592-1.008a2.148 2.148 0 0 0-.928-.544 4.304 4.304 0 0 0-1.216-.16h-.448v6.624ZM391.74 106V95.568h3.584c.576 0 1.114.059 1.616.176.501.107.938.293 1.312.56.373.256.666.603.88 1.04.224.427.336.955.336 1.584 0 .608-.112 1.136-.336 1.584a3.007 3.007 0 0 1-.88 1.104 3.798 3.798 0 0 1-1.296.64 5.734 5.734 0 0 1-1.568.208h-1.296V106h-2.352Zm2.352-5.408h1.152c1.28 0 1.92-.555 1.92-1.664 0-.544-.171-.928-.512-1.152-.342-.224-.832-.336-1.472-.336h-1.088v3.152Zm7.179 5.408V95.568h3.76c.555 0 1.072.053 1.552.16.491.107.917.288 1.28.544.363.245.651.576.864.992.213.416.32.933.32 1.552 0 .768-.171 1.403-.512 1.904a3.041 3.041 0 0 1-1.344 1.104l2.368 4.176h-2.64l-2-3.76h-1.296V106h-2.352Zm2.352-5.632h1.216c.619 0 1.088-.128 1.408-.384.331-.267.496-.656.496-1.168 0-.512-.165-.87-.496-1.072-.32-.203-.789-.304-1.408-.304h-1.216v2.928Z" fill="#1A1A1A"/><g clip-path="url(#a)"><mask id="b" style="mask-type:luminance" maskUnits="userSpaceOnUse" x="610" y="8" width="81" height="80"><path d="M690.477 8h-80v80h80V8Z" fill="#fff"/></mask><g mask="url(#b)"><path d="M650.38 8c-22.038 0-39.903 17.655-39.903 39.434v1.01c0 21.78 17.865 39.434 39.903 39.434 22.037 0 39.903-17.655 39.903-39.433v-1.011C690.283 25.655 672.418 8 650.38 8Z" fill="#0048D9"/><path d="M644.376 39.275V26.203h-15.96l.519 4.012-2.076 4.789 1.557 1.424.519 5.694 2.985 2.847v1.683l3.503 5.047v2.33l5.449 6.989v4.789h4.931l8.563 5.435v3.495l12.457-1.812v-8.671l-22.447-24.98Z" fill="#fff"/><path d="M648 34.945h25.111V57.04H650.79c-1.541 0-2.79-1.235-2.79-2.757V34.945Z" fill="#0048D9"/><path d="M667.734 37.38h-1.169v-2.312c0-3.19-2.62-5.779-5.849-5.779-3.228 0-5.848 2.59-5.848 5.78v2.311h-1.169c-1.293 0-2.34 1.035-2.34 2.312v11.559c0 1.277 1.047 2.312 2.34 2.312h14.035c1.293 0 2.34-1.035 2.34-2.312V39.69c0-1.276-1.047-2.31-2.34-2.31Zm-7.018 10.403c-1.292 0-2.339-1.034-2.339-2.312 0-1.277 1.047-2.311 2.339-2.311 1.293 0 2.34 1.034 2.34 2.311 0 1.278-1.047 2.312-2.34 2.312Zm3.627-10.403h-7.252v-2.312c0-1.976 1.625-3.583 3.625-3.583 2.001 0 3.627 1.607 3.627 3.583v2.312Z" fill="#fff"/><path d="M650.384 84.34c20.061 0 36.322-16.07 36.322-35.895 0-19.824-16.261-35.894-36.322-35.894-20.06 0-36.322 16.07-36.322 35.894 0 19.824 16.262 35.895 36.322 35.895Z" stroke="#fff" stroke-width="1.25"/></g></g><path d="M637.615 106.192a5.206 5.206 0 0 1-1.872-.336 4.588 4.588 0 0 1-1.552-1.024c-.437-.448-.784-1.003-1.04-1.664-.256-.672-.384-1.445-.384-2.32 0-.864.134-1.632.4-2.304.267-.683.624-1.259 1.072-1.728a4.52 4.52 0 0 1 1.568-1.072 4.925 4.925 0 0 1 1.888-.368c.672 0 1.275.139 1.808.416.534.267.976.581 1.328.944l-1.248 1.504a3.67 3.67 0 0 0-.848-.592 2.007 2.007 0 0 0-.992-.24c-.352 0-.688.08-1.008.24-.309.15-.581.368-.816.656-.224.288-.405.64-.544 1.056a4.78 4.78 0 0 0-.192 1.408c0 1.077.23 1.915.688 2.512.459.587 1.072.88 1.84.88.427 0 .806-.091 1.136-.272a3.63 3.63 0 0 0 .896-.704l1.248 1.472c-.874 1.024-2 1.536-3.376 1.536Zm8.719 0a5.206 5.206 0 0 1-1.872-.336 4.579 4.579 0 0 1-1.552-1.024c-.437-.448-.784-1.003-1.04-1.664-.256-.672-.384-1.445-.384-2.32 0-.864.133-1.632.4-2.304.267-.683.624-1.259 1.072-1.728a4.52 4.52 0 0 1 1.568-1.072 4.922 4.922 0 0 1 1.888-.368c.672 0 1.275.139 1.808.416.533.267.976.581 1.328.944l-1.248 1.504a3.69 3.69 0 0 0-.848-.592 2.01 2.01 0 0 0-.992-.24c-.352 0-.688.08-1.008.24-.309.15-.581.368-.816.656-.224.288-.405.64-.544 1.056a4.78 4.78 0 0 0-.192 1.408c0 1.077.229 1.915.688 2.512.459.587 1.072.88 1.84.88.427 0 .805-.091 1.136-.272.341-.192.64-.427.896-.704l1.248 1.472c-.875 1.024-2 1.536-3.376 1.536Zm4.961-.192V95.568h3.584c.576 0 1.114.059 1.616.176.501.107.938.293 1.312.56.373.256.666.603.88 1.04.224.427.336.955.336 1.584 0 .608-.112 1.136-.336 1.584a3.007 3.007 0 0 1-.88 1.104 3.798 3.798 0 0 1-1.296.64 5.734 5.734 0 0 1-1.568.208h-1.296V106h-2.352Zm2.352-5.408h1.152c1.28 0 1.92-.555 1.92-1.664 0-.544-.171-.928-.512-1.152-.342-.224-.832-.336-1.472-.336h-1.088v3.152Zm8.83.128-.256.96h2.224l-.24-.96a38.334 38.334 0 0 1-.432-1.664 99.9 99.9 0 0 0-.416-1.696h-.064c-.128.555-.261 1.125-.4 1.712a28.884 28.884 0 0 1-.416 1.648Zm-3.776 5.28 3.264-10.432h2.832L668.061 106h-2.496l-.64-2.48h-3.184l-.64 2.48h-2.4Z" fill="#1A1A1A"/><path fill-rule="evenodd" clip-rule="evenodd" d="M910.005 8c22.536 0 35.997 5.896 35.997 5.896s1.209 26.103-3.902 40.863C933.071 80.71 910.008 88 910.008 88H909.995s-23.067-7.29-32.093-33.241c-5.11-14.76-3.905-40.863-3.905-40.863S887.462 8 909.998 8h.007Zm23.724 42.324V35.942h-16.78l-.003-16.776h-14.379v16.776h-16.779v14.382h16.779v16.78h14.382v-16.78h16.78Z" fill="#F23030"/><path d="M888.149 106v-7.936h1.92l.16 1.008h.064c.342-.32.715-.597 1.12-.832.406-.245.88-.368 1.424-.368.864 0 1.488.283 1.872.848.395.565.592 1.349.592 2.352V106h-2.352v-4.624c0-.576-.08-.971-.24-1.184-.149-.213-.394-.32-.736-.32-.298 0-.554.07-.768.208a4.142 4.142 0 0 0-.704.56V106h-2.352Zm9.349 0V95.568h6.576v1.984h-4.224v2.416h3.616v1.984h-3.616V106h-2.352Zm10.213-5.28-.256.96h2.224l-.24-.96a38.334 38.334 0 0 1-.432-1.664 91.194 91.194 0 0 0-.416-1.696h-.064c-.128.555-.261 1.125-.4 1.712a28.068 28.068 0 0 1-.416 1.648Zm-3.776 5.28 3.264-10.432h2.832L913.295 106h-2.496l-.64-2.48h-3.184l-.64 2.48h-2.4Zm10.5 0V95.568h2.944c.8 0 1.52.101 2.16.304a4.28 4.28 0 0 1 1.648.944c.459.416.811.95 1.056 1.6.245.65.368 1.424.368 2.32 0 .896-.123 1.675-.368 2.336-.245.661-.592 1.211-1.04 1.648a4.31 4.31 0 0 1-1.616.96c-.619.213-1.312.32-2.08.32h-3.072Zm2.352-1.904h.448a3.95 3.95 0 0 0 1.216-.176c.363-.117.672-.304.928-.56.256-.267.453-.613.592-1.04.149-.427.224-.955.224-1.584 0-.619-.075-1.136-.224-1.552-.139-.427-.336-.763-.592-1.008a2.143 2.143 0 0 0-.928-.544 4.304 4.304 0 0 0-1.216-.16h-.448v6.624Zm7.804 1.904V95.568h3.584a7.08 7.08 0 0 1 1.616.176c.502.107.939.293 1.312.56.374.256.667.603.88 1.04.224.427.336.955.336 1.584 0 .608-.112 1.136-.336 1.584a2.987 2.987 0 0 1-.88 1.104 3.78 3.78 0 0 1-1.296.64 5.724 5.724 0 0 1-1.568.208h-1.296V106h-2.352Zm2.352-5.408h1.152c1.28 0 1.92-.555 1.92-1.664 0-.544-.17-.928-.512-1.152-.341-.224-.832-.336-1.472-.336h-1.088v3.152Z" fill="#1A1A1A"/><defs><clipPath id="a"><path fill="#fff" transform="translate(609.375 8)" d="M0 0h81.25v80H0z"/></clipPath></defs></svg>