<svg width="80" height="80" fill="none" xmlns="http://www.w3.org/2000/svg"><rect x="38.14" y="9.31" width="38.52" height="38.52" rx="4.97" transform="rotate(74.62 38.14 9.3)" fill="#FAFAFA"/><path fill-rule="evenodd" clip-rule="evenodd" d="M19.8 63.8V61h1.4v2.8H24v1.4h-2.8V68h-1.4v-2.8H17v-1.4h2.8ZM58 23.5a2.5 2.5 0 1 1-5 0 2.5 2.5 0 0 1 5 0Zm-3.8 0a1.3 1.3 0 1 0 2.6 0 1.3 1.3 0 0 0-2.6 0Z" fill="#FFB700"/><path d="M21.7 21a6.97 6.97 0 0 0-4.99 8.49l1.13 4.33a.5.5 0 0 0 .6.36l1.93-.5a.5.5 0 0 0 .36-.6l-1.13-4.34a3.98 3.98 0 1 1 7.7-2l1.13 4.33a.5.5 0 0 0 .6.36l1.93-.5a.5.5 0 0 0 .36-.6l-1.13-4.34a6.97 6.97 0 0 0-8.49-5Z" fill="#A3A3A3"/><path d="M30.7 29.97 18.2 33.2a1.5 1.5 0 0 0-1.08 1.82l2.25 8.67a2.49 2.49 0 0 0 3.04 1.78L33 42.73a2.49 2.49 0 0 0 1.78-3.03l-2.25-8.67a1.5 1.5 0 0 0-1.82-1.06Z" fill="#FFB700"/><path d="M27.37 37.48a1.99 1.99 0 1 0-2.6.68l-.13 1.95a.5.5 0 0 0 .62.52l2.89-.75a.5.5 0 0 0 .29-.75l-1.07-1.65Z" fill="#fff"/><rect x="75.97" y="39.37" width="35.85" height="35.85" rx="3.97" transform="rotate(105.14 75.97 39.37)" fill="#F2F6FF"/><path d="m66.03 46.71-9.58-5.92-11.26.35s-8.46 16.6 4.71 24.1c15.16.09 16.13-18.53 16.13-18.53Z" fill="#F23030"/><path fill-rule="evenodd" clip-rule="evenodd" d="m56.51 47.36-3.12-.84-.98 3.65-3.64-.98-.84 3.13 3.65.97-.98 3.65 3.13.83.97-3.64 3.64.97.84-3.12-3.64-.98.97-3.64Z" fill="#fff"/><path fill-rule="evenodd" clip-rule="evenodd" d="M64 19v-2h1v2h2v1h-2v2h-1v-2h-2v-1h2Z" fill="#05F"/></svg>