<svg width="98" height="24" viewBox="0 0 98 24" fill="none" xmlns="http://www.w3.org/2000/svg">
<path d="M25.694 8.50781H35.584V10.349H31.69V20.7278H29.5555V10.349H25.6777L25.694 8.50781ZM35.1604 11.8805H36.9853V13.5913H37.0179C37.083 13.3469 37.1971 13.1188 37.36 12.8907C37.5229 12.6626 37.7185 12.4508 37.9629 12.2716C38.191 12.076 38.4517 11.9294 38.7449 11.8153C39.0219 11.7013 39.3152 11.6361 39.6085 11.6361C39.8366 11.6361 39.9995 11.6524 40.081 11.6524C40.1625 11.6687 40.2602 11.685 40.3417 11.685V13.5587C40.2113 13.5261 40.0647 13.5098 39.9181 13.4936C39.7714 13.4773 39.6411 13.461 39.4944 13.461C39.1686 13.461 38.859 13.5261 38.5657 13.6565C38.2724 13.7868 38.028 13.9824 37.7999 14.2268C37.5881 14.4874 37.4089 14.797 37.2786 15.1718C37.1482 15.5465 37.083 15.9864 37.083 16.4752V20.6789H35.1278L35.1604 11.8805ZM49.303 20.7278H47.3804V19.4895H47.3478C47.1034 19.9457 46.7449 20.2879 46.2724 20.5648C45.7999 20.8418 45.3111 20.9722 44.8223 20.9722C43.6655 20.9722 42.8183 20.6952 42.2969 20.1086C41.7755 19.5384 41.5148 18.6585 41.5148 17.5017V11.8805H43.47V17.3062C43.47 18.0883 43.6166 18.6422 43.9262 18.9518C44.2195 19.2777 44.6431 19.4406 45.1808 19.4406C45.5881 19.4406 45.9303 19.3754 46.2073 19.2451C46.4843 19.1147 46.7124 18.9518 46.8753 18.74C47.0545 18.5282 47.1686 18.2675 47.25 17.9742C47.3315 17.6809 47.3641 17.3551 47.3641 17.0129V11.8805H49.3193V20.7278H49.303ZM52.6268 17.8927C52.692 18.463 52.9038 18.854 53.2786 19.0984C53.6533 19.3266 54.1095 19.4406 54.6309 19.4406C54.8101 19.4406 55.0219 19.4243 55.25 19.3917C55.4781 19.3591 55.7063 19.3103 55.9018 19.2288C56.1136 19.1473 56.2765 19.0333 56.4069 18.8703C56.5372 18.7074 56.6024 18.5119 56.5861 18.2675C56.5698 18.0231 56.4883 17.8113 56.3091 17.6483C56.1299 17.4854 55.9181 17.3714 55.6574 17.2573C55.3967 17.1595 55.0871 17.0781 54.7449 17.0129C54.4028 16.9477 54.0606 16.8663 53.7022 16.7848C53.3437 16.7033 52.9853 16.6056 52.6431 16.4915C52.301 16.3775 52.0077 16.2308 51.7307 16.019C51.47 15.8235 51.2419 15.5791 51.0953 15.2695C50.9323 14.96 50.8509 14.6015 50.8509 14.1453C50.8509 13.6565 50.9649 13.2654 51.2093 12.9396C51.4374 12.6137 51.747 12.353 52.1054 12.1575C52.4639 11.962 52.8712 11.8153 53.3111 11.7339C53.7511 11.6524 54.1747 11.6198 54.5657 11.6198C55.0219 11.6198 55.4619 11.6687 55.8692 11.7665C56.2765 11.8642 56.6676 12.0109 56.9934 12.239C57.3356 12.4508 57.6126 12.7441 57.8244 13.0862C58.0525 13.4284 58.1828 13.852 58.248 14.3408H56.2113C56.1136 13.8683 55.9018 13.5587 55.5759 13.3958C55.2337 13.2329 54.859 13.1514 54.4191 13.1514C54.2887 13.1514 54.1095 13.1677 53.9303 13.184C53.7348 13.2166 53.5718 13.2492 53.3926 13.3143C53.2297 13.3795 53.083 13.4773 52.969 13.5913C52.8549 13.7054 52.7898 13.8683 52.7898 14.0638C52.7898 14.3082 52.8712 14.4874 53.0342 14.6341C53.1971 14.7807 53.4089 14.8948 53.6859 15.0088C53.9466 15.1066 54.2561 15.1881 54.5983 15.2532C54.9405 15.3184 55.2989 15.3999 55.6574 15.4813C56.0158 15.5628 56.358 15.6606 56.7001 15.7746C57.0423 15.8887 57.3519 16.0353 57.6126 16.2471C57.8733 16.4426 58.1014 16.687 58.2643 16.9803C58.4272 17.2736 58.5087 17.6483 58.5087 18.072C58.5087 18.5934 58.3946 19.0333 58.1502 19.408C57.9058 19.7665 57.5963 20.076 57.2215 20.3041C56.8468 20.5323 56.4069 20.6952 55.9506 20.8092C55.4781 20.907 55.0219 20.9722 54.5657 20.9722C54.0117 20.9722 53.4904 20.907 53.0179 20.7767C52.5454 20.6463 52.1217 20.4508 51.7796 20.2064C51.4374 19.9457 51.1604 19.6361 50.9649 19.2451C50.7694 18.8703 50.6553 18.4141 50.639 17.8765H52.6105V17.8927H52.6268ZM59.0627 11.8805H60.5454V9.20842H62.5006V11.8642H64.2602V13.3143H62.5006V18.0394C62.5006 18.2512 62.5168 18.4141 62.5331 18.5771C62.5494 18.7237 62.5983 18.854 62.6472 18.9518C62.7124 19.0496 62.8101 19.131 62.9242 19.1799C63.0545 19.2288 63.2175 19.2614 63.4456 19.2614C63.5759 19.2614 63.7225 19.2614 63.8529 19.2451C63.9832 19.2288 64.1299 19.2125 64.2602 19.1799V20.6952C64.0484 20.7278 63.8366 20.7441 63.6248 20.7604C63.413 20.7929 63.2175 20.7929 62.9893 20.7929C62.468 20.7929 62.0606 20.7441 61.7511 20.6463C61.4415 20.5485 61.1971 20.4019 61.0179 20.2227C60.8386 20.0272 60.7246 19.7991 60.6594 19.5221C60.5942 19.2451 60.5616 18.9029 60.5454 18.5445V13.3306H59.0627V11.8479V11.8805ZM65.6289 11.8805H67.47V13.0862H67.5026C67.7796 12.5648 68.1543 12.2064 68.6431 11.9783C69.1319 11.7502 69.6533 11.6361 70.2399 11.6361C70.9405 11.6361 71.5433 11.7502 72.0647 12.0109C72.5861 12.2553 73.0097 12.5811 73.3519 13.021C73.694 13.4447 73.9547 13.9498 74.1177 14.52C74.2806 15.0903 74.3784 15.7094 74.3784 16.3449C74.3784 16.9477 74.2969 17.518 74.1502 18.072C73.9873 18.6259 73.7592 19.131 73.4496 19.5547C73.1401 19.9783 72.749 20.3204 72.2602 20.5811C71.7714 20.8418 71.2175 20.9722 70.5657 20.9722C70.2887 20.9722 69.9955 20.9396 69.7185 20.8907C69.4415 20.8418 69.1645 20.7604 68.9038 20.6463C68.6431 20.5323 68.3987 20.3856 68.1869 20.2064C67.9588 20.0272 67.7796 19.8154 67.6329 19.5872H67.6003V24.0027H65.6452V11.8805H65.6289ZM72.4557 16.3123C72.4557 15.9213 72.4069 15.5302 72.2928 15.1555C72.1951 14.7807 72.0321 14.4549 71.8203 14.1616C71.6085 13.8683 71.3478 13.6402 71.0545 13.461C70.745 13.2817 70.3865 13.2003 69.9955 13.2003C69.1808 13.2003 68.5617 13.4773 68.138 14.0475C67.7307 14.6178 67.5189 15.3836 67.5189 16.3286C67.5189 16.7848 67.5678 17.1921 67.6818 17.5669C67.7959 17.9416 67.9425 18.2675 68.1706 18.5445C68.3824 18.8215 68.6431 19.0333 68.9527 19.1962C69.2623 19.3591 69.6044 19.4406 70.0118 19.4406C70.468 19.4406 70.8264 19.3428 71.136 19.1636C71.4456 18.9844 71.69 18.74 71.9018 18.463C72.0973 18.1697 72.2439 17.8439 72.3254 17.4691C72.4069 17.0781 72.4557 16.7033 72.4557 16.3123ZM75.8936 8.50781H77.8488V10.349H75.8936V8.50781ZM75.8936 11.8805H77.8488V20.7278H75.8936V11.8805ZM79.5922 8.50781H81.5474V20.7278H79.5922V8.50781ZM87.5107 20.9722C86.8101 20.9722 86.1747 20.8581 85.6207 20.6137C85.0667 20.3693 84.6105 20.0597 84.2195 19.6524C83.8448 19.2451 83.5515 18.74 83.3559 18.1697C83.1604 17.5995 83.0464 16.964 83.0464 16.296C83.0464 15.628 83.1441 15.0088 83.3559 14.4386C83.5515 13.8683 83.8448 13.3795 84.2195 12.9559C84.5942 12.5485 85.0667 12.2227 85.6207 11.9946C86.1747 11.7665 86.8101 11.6361 87.5107 11.6361C88.2113 11.6361 88.8468 11.7502 89.4008 11.9946C89.9547 12.2227 90.4109 12.5485 90.802 12.9559C91.1767 13.3632 91.47 13.8683 91.6655 14.4386C91.861 15.0088 91.9751 15.628 91.9751 16.296C91.9751 16.9803 91.8773 17.5995 91.6655 18.1697C91.4537 18.74 91.1767 19.2288 90.802 19.6524C90.4272 20.0597 89.9547 20.3856 89.4008 20.6137C88.8468 20.8418 88.2276 20.9722 87.5107 20.9722ZM87.5107 19.4243C87.9344 19.4243 88.3254 19.3266 88.635 19.1473C88.9608 18.9681 89.2052 18.7237 89.417 18.4304C89.6289 18.1371 89.7755 17.795 89.8733 17.4365C89.971 17.0618 90.0199 16.687 90.0199 16.296C90.0199 15.9213 89.971 15.5465 89.8733 15.1718C89.7755 14.797 89.6289 14.4712 89.417 14.1779C89.2052 13.8846 88.9445 13.6565 88.635 13.4773C88.3091 13.298 87.9344 13.2003 87.5107 13.2003C87.0871 13.2003 86.6961 13.298 86.3865 13.4773C86.0606 13.6565 85.8162 13.9009 85.6044 14.1779C85.3926 14.4712 85.246 14.797 85.1482 15.1718C85.0504 15.5465 85.0016 15.9213 85.0016 16.296C85.0016 16.687 85.0504 17.0618 85.1482 17.4365C85.246 17.8113 85.3926 18.1371 85.6044 18.4304C85.8162 18.7237 86.0769 18.9681 86.3865 19.1473C86.7124 19.3428 87.0871 19.4243 87.5107 19.4243ZM92.5616 11.8805H94.0443V9.20842H95.9995V11.8642H97.7592V13.3143H95.9995V18.0394C95.9995 18.2512 96.0158 18.4141 96.0321 18.5771C96.0484 18.7237 96.0973 18.854 96.1462 18.9518C96.2113 19.0496 96.3091 19.131 96.4232 19.1799C96.5535 19.2288 96.7164 19.2614 96.9445 19.2614C97.0749 19.2614 97.2215 19.2614 97.3519 19.2451C97.4822 19.2288 97.6289 19.2125 97.7592 19.1799V20.6952C97.5474 20.7278 97.3356 20.7441 97.1238 20.7604C96.912 20.7929 96.7164 20.7929 96.4883 20.7929C95.967 20.7929 95.5596 20.7441 95.25 20.6463C94.9405 20.5485 94.6961 20.4019 94.5168 20.2227C94.3376 20.0272 94.2236 19.7991 94.1584 19.5221C94.0932 19.2451 94.0606 18.9029 94.0443 18.5445V13.3306H92.5616V11.8479V11.8805Z" fill="#1A1A1A"/>
<path d="M23.4134 8.5051H14.4684L11.7149 0L8.94501 8.5051L0 8.4888L7.23422 13.7515L4.46436 22.2566L11.6986 16.9939L18.9328 22.2566L16.1792 13.7515L23.4134 8.5051Z" fill="#00B67A"/>
<path d="M16.7983 15.6726L16.1792 13.75L11.7148 16.9924L16.7983 15.6726Z" fill="#005128"/>
</svg>
